# xmcd
#
# Track frame offsets: 
#        150
#        17193
#        42805
#        70888
#
# Disc length: 1170 seconds
#
# Revision: 0
# Processed by: cddbd v1.5.2PL0 Copyright (c) Steve Scherf et al.
# Submitted via: ExactAudioCopy v0.99pb5
#
DISCID=2d049004
DTITLE=Brainstorm Project - Confusion
DYEAR=1996
DGENRE=Euro-House
TTITLE0=Confusion (Radio Edit)
TTITLE1=Confusion (Extended Version)
TTITLE2=Confusion (Special Mix)
TTITLE3=Confusion (Instrumental Version)
EXTD=
EXTT0=
EXTT1=
EXTT2=
EXTT3=
PLAYORDER=
